<?xml version="1.0" encoding="UTF-8"?>
<svg xmlns="http://www.w3.org/2000/svg" xmlns:xlink="http://www.w3.org/1999/xlink" width="512" height="512" viewBox="0 0 512 512">
<defs>
<linearGradient id="sgrad1" gradientUnits="objectBoundingBox" x1="0" y1="0" x2="1" y2="1"><stop offset="0" stop-color="#5b8def"/><stop offset="0.5" stop-color="#9b6fe0"/><stop offset="1" stop-color="#e89bc8"/></linearGradient>
<linearGradient id="sgrad2" gradientUnits="objectBoundingBox" x1="0" y1="0" x2="1" y2="1"><stop offset="0" stop-color="#5b8def"/><stop offset="0.5" stop-color="#9b6fe0"/><stop offset="1" stop-color="#e89bc8"/></linearGradient>
</defs>
<svg x="0" y="0" width="512" height="512" viewBox="0 0 512 512" preserveAspectRatio="xMidYMid meet" overflow="visible">
<path d="M496,256 C496,388.45960587855996 388.45960587856,496 256,496 C123.54039412144004,496 16.00000000000003,388.45960587856 16,256.00000000000006 C16,123.54039412144004 123.54039412143996,16.00000000000003 255.99999999999994,16 C388.45960587855996,16 496,123.54039412144002 496,256 Z" fill="#e6e6fa" opacity="0.13"/>
<path d="M486,256 C486,382.94045563362 382.94045563362,486 256,486 C129.05954436638,486 26.00000000000003,382.94045563362 26,256 C26,129.05954436638 129.05954436637995,26.00000000000003 255.99999999999997,26 C382.94045563361993,26 486,129.05954436638 486,256 Z" fill="none" stroke="#c8b8f5" stroke-width="28" opacity="0.09"/>
<path d="M449,256 C449,362.519599727342 362.519599727342,449 256,449 C149.48040027265802,449 63.00000000000003,362.519599727342 63,256 C63,149.48040027265802 149.48040027265796,63.00000000000003 255.99999999999997,63 C362.519599727342,63 449,149.48040027265802 449,256 Z" fill="none" stroke="url(#sgrad1)" stroke-width="22" opacity="0.35"/>
<path d="M449,256 C449,362.519599727342 362.519599727342,449 256,449 C149.48040027265802,449 63.00000000000003,362.519599727342 63,256 C63,149.48040027265802 149.48040027265796,63.00000000000003 255.99999999999997,63 C362.519599727342,63 449,149.48040027265802 449,256 Z" fill="none" stroke="url(#sgrad2)" stroke-width="14"/>
<path d="M428,258 C428,352.929384212968 350.929384212968,430 256,430 C161.070615787032,430 84.00000000000003,352.929384212968 84,258 C84,163.070615787032 161.07061578703195,86.00000000000003 255.99999999999997,86 C350.929384212968,86 428,163.070615787032 428,258 Z" fill="#080a18" opacity="0.6"/>
<path d="M426,256 C426,349.82555416398 349.82555416398003,426 256,426 C162.17444583602003,426 86.00000000000003,349.82555416398003 86,256 C86,162.17444583602003 162.17444583601997,86.00000000000003 255.99999999999997,86 C349.82555416398,86 426,162.17444583602 426,256 Z" fill="#0e1020"/>
<path d="M424,256 C424,348.721724114992 348.721724114992,424 256,424 C163.27827588500801,424 88.00000000000003,348.721724114992 88,256 C88,163.27827588500801 163.278275885008,88.00000000000003 255.99999999999997,88 C348.72172411499196,88 424,163.278275885008 424,256 Z" fill="none" stroke="#5bb8f5" stroke-opacity="0.078" stroke-width="1.5"/>
<path d="M138,187.5 C138,184.46243387593063 140.46243387593063,182 143.5,182 L143.5,182 C146.53756612406937,182 149,184.46243387593063 149,187.5 L149,324.5 C149,327.5375661240694 146.53756612406937,330 143.5,330 L143.5,330 C140.46243387593063,330 138,327.5375661240694 138,324.5 Z" fill="#5bb8f5"/>
<path d="M154,202 C154,198.96243387593063 156.46243387593063,196.5 159.5,196.5 L159.5,196.5 C162.53756612406937,196.5 165,198.96243387593063 165,202 L165,310 C165,313.0375661240694 162.53756612406937,315.5 159.5,315.5 L159.5,315.5 C156.46243387593063,315.5 154,313.0375661240694 154,310 Z" fill="#5cb2f2"/>
<path d="M170,214 C170,210.96243387593063 172.46243387593063,208.5 175.5,208.5 L175.5,208.5 C178.53756612406937,208.5 181,210.96243387593063 181,214 L181,298 C181,301.0375661240694 178.53756612406937,303.5 175.5,303.5 L175.5,303.5 C172.46243387593063,303.5 170,301.0375661240694 170,298 Z" fill="#60a8ee"/>
<path d="M186,223 C186,220.23857625084602 188.23857625084602,218 191,218 L191,218 C193.76142374915398,218 196,220.23857625084602 196,223 L196,289 C196,291.76142374915395 193.76142374915398,294 191,294 L191,294 C188.23857625084602,294 186,291.76142374915395 186,289 Z" fill="#6b9ee8"/>
<path d="M201,231 C201,228.23857625084602 203.23857625084602,226 206,226 L206,226 C208.76142374915398,226 211,228.23857625084602 211,231 L211,281 C211,283.76142374915395 208.76142374915398,286 206,286 L206,286 C203.23857625084602,286 201,283.76142374915395 201,281 Z" fill="#7994e2"/>
<path d="M216,237.5 C216,234.73857625084602 218.23857625084602,232.5 221,232.5 L221,232.5 C223.76142374915398,232.5 226,234.73857625084602 226,237.5 L226,274.5 C226,277.26142374915395 223.76142374915398,279.5 221,279.5 L221,279.5 C218.23857625084602,279.5 216,277.26142374915395 216,274.5 Z" fill="#8788dc"/>
<path d="M231,242.5 C231,240.01471862576142 233.01471862576142,238 235.5,238 L235.5,238 C237.98528137423858,238 240,240.01471862576142 240,242.5 L240,269.5 C240,271.9852813742386 237.98528137423858,274 235.5,274 L235.5,274 C233.01471862576142,274 231,271.9852813742386 231,269.5 Z" fill="#8b7ed8"/>
<path d="M245,247 C245,244.51471862576142 247.01471862576142,242.5 249.5,242.5 L249.5,242.5 C251.98528137423858,242.5 254,244.51471862576142 254,247 L254,265 C254,267.4852813742386 251.98528137423858,269.5 249.5,269.5 L249.5,269.5 C247.01471862576142,269.5 245,267.4852813742386 245,265 Z" fill="#8b74d4"/>
<path d="M259,250 C259,247.79086100067684 260.79086100067684,246 263,246 L263,246 C265.20913899932316,246 267,247.7908610006768 267,250 L267,262 C267,264.20913899932316 265.20913899932316,266 263,266 L263,266 C260.79086100067684,266 259,264.20913899932316 259,262 Z" fill="#9b71ce"/>
<path d="M272,253 C272,250.79086100067684 273.79086100067684,249 276,249 L276,249 C278.20913899932316,249 280,250.7908610006768 280,253 L280,259 C280,261.20913899932316 278.20913899932316,263 276,263 L276,263 C273.79086100067684,263 272,261.20913899932316 272,259 Z" fill="#b378c4"/>
<path d="M285,254.75 C285,252.81700337559224 286.5670033755922,251.25 288.5,251.25 L288.5,251.25 C290.4329966244078,251.25 292,252.81700337559224 292,254.75 L292,257.25 C292,259.1829966244078 290.4329966244078,260.75 288.5,260.75 L288.5,260.75 C286.5670033755922,260.75 285,259.1829966244078 285,257.25 Z" fill="#c37dbe"/>
<path d="M301,256 C301,257.655745073482 299.655745073482,259 298,259 C296.344254926518,259 295,257.655745073482 295,256 C295,254.344254926518 296.344254926518,253 298,253 C299.655745073482,253 301,254.344254926518 301,256 Z" fill="#cc80ba"/>
<path d="M313.3,256 C313.3,257.2694045563362 312.2694045563362,258.3 311,258.3 C309.7305954436638,258.3 308.7,257.2694045563362 308.7,256 C308.7,254.7305954436638 309.7305954436638,253.7 311,253.7 C312.2694045563362,253.7 313.3,254.7305954436638 313.3,256 Z" fill="#d383b6"/>
<path d="M323.8,256 C323.8,256.9934470440892 322.9934470440892,257.8 322,257.8 C321.0065529559108,257.8 320.2,256.9934470440892 320.2,256 C320.2,255.0065529559108 321.0065529559108,254.2 322,254.2 C322.9934470440892,254.2 323.8,255.0065529559108 323.8,256 Z" fill="#d986b2"/>
<path d="M327,256 L366,256" fill="none" stroke="#d98bc8" stroke-width="2"/>
<path d="M377,256 C377,258.207660097976 375.207660097976,260 373,260 C370.792339902024,260 369,258.207660097976 369,256 C369,253.792339902024 370.792339902024,252 373,252 C375.207660097976,252 377,253.792339902024 377,256 Z" fill="#f2c4e0"/>
</svg>
</svg>
