<?xml version="1.0" encoding="UTF-8"?>
<svg xmlns="http://www.w3.org/2000/svg" xmlns:xlink="http://www.w3.org/1999/xlink" width="512" height="512" viewBox="0 0 512 512">
<defs>
<clipPath id="clip1"><rect x="0" y="0" width="512" height="512" rx="0"/></clipPath>
<linearGradient id="grad2" gradientUnits="userSpaceOnUse" x1="256" y1="512" x2="256" y2="0"><stop offset="0" stop-color="#07070e"/><stop offset="1" stop-color="#160f22"/></linearGradient>
<filter id="shadow3" x="-50%" y="-50%" width="200%" height="200%"><feGaussianBlur stdDeviation="60"/></filter>
<linearGradient id="sgrad4" gradientUnits="objectBoundingBox" x1="0" y1="0" x2="1" y2="1"><stop offset="0" stop-color="#78c0ff"/><stop offset="0.35" stop-color="#9090ff"/><stop offset="0.65" stop-color="#c090f0"/><stop offset="1" stop-color="#b0b8ff"/></linearGradient>
</defs>
<g clip-path="url(#clip1)">
<rect x="106" y="98" width="300" height="300" rx="9999" fill="#9090ff" fill-opacity="0.118" filter="url(#shadow3)"/>
<svg x="0" y="0" width="512" height="512" viewBox="0 0 512 512" preserveAspectRatio="xMidYMid meet" overflow="visible">
<path d="M410,256 C410,340.994913772076 340.994913772076,410 256,410 C171.00508622792404,410 102.00000000000003,340.994913772076 102,256 C102,171.00508622792404 171.00508622792398,102.00000000000003 255.99999999999997,102 C340.99491377207596,102 410,171.00508622792398 410,256 Z" fill="#000000"/>
<path d="M428,256 C428,350.929384212968 350.929384212968,428 256,428 C161.070615787032,428 84.00000000000003,350.929384212968 84,256 C84,161.070615787032 161.07061578703195,84.00000000000003 255.99999999999997,84 C350.929384212968,84 428,161.070615787032 428,256 Z" fill="none" stroke="#8090ff" stroke-opacity="0.18" stroke-width="34"/>
<path d="M412,256 C412,342.098743821064 342.09874382106403,412 256,412 C169.90125617893602,412 100.00000000000003,342.09874382106403 100,256 C100,169.90125617893602 169.90125617893597,100.00000000000003 255.99999999999997,100 C342.098743821064,100 412,169.90125617893602 412,256 Z" fill="#070710"/>
<path d="M424,256 C424,348.721724114992 348.721724114992,424 256,424 C163.27827588500801,424 88.00000000000003,348.721724114992 88,256 C88,163.27827588500801 163.278275885008,88.00000000000003 255.99999999999997,88 C348.72172411499196,88 424,163.278275885008 424,256 Z" fill="none" stroke="url(#sgrad4)" stroke-width="12"/>
<path d="M417,256 C417,344.858318943534 344.858318943534,417 256,417 C167.14168105646604,417 95.00000000000003,344.858318943534 95,256 C95,167.14168105646604 167.14168105646598,95.00000000000003 255.99999999999997,95 C344.85831894353396,95 417,167.14168105646598 417,256 Z" fill="none" stroke="#c0f0ff" stroke-opacity="0.4" stroke-width="1.5"/>
<path d="M111,191.5 C111,189.56700337559224 112.56700337559222,188 114.5,188 L114.5,188 C116.43299662440778,188 118,189.56700337559224 118,191.5 L118,320.5 C118,322.4329966244078 116.43299662440778,324 114.5,324 L114.5,324 C112.56700337559222,324 111,322.4329966244078 111,320.5 Z" fill="#c0f0ff"/>
<path d="M121,199.5 C121,197.56700337559224 122.56700337559222,196 124.5,196 L124.5,196 C126.43299662440778,196 128,197.56700337559224 128,199.5 L128,312.5 C128,314.4329966244078 126.43299662440778,316 124.5,316 L124.5,316 C122.56700337559222,316 121,314.4329966244078 121,312.5 Z" fill="#9cd8ff"/>
<path d="M131,194.5 C131,192.56700337559224 132.56700337559224,191 134.5,191 L134.5,191 C136.43299662440776,191 138,192.56700337559224 138,194.5 L138,317.5 C138,319.4329966244078 136.43299662440776,321 134.5,321 L134.5,321 C132.56700337559224,321 131,319.4329966244078 131,317.5 Z" fill="#78c0ff"/>
<path d="M141,204.5 C141,202.56700337559224 142.56700337559224,201 144.5,201 L144.5,201 C146.43299662440776,201 148,202.56700337559224 148,204.5 L148,307.5 C148,309.4329966244078 146.43299662440776,311 144.5,311 L144.5,311 C142.56700337559224,311 141,309.4329966244078 141,307.5 Z" fill="#60a8ff"/>
<path d="M151,197.5 C151,195.56700337559224 152.56700337559224,194 154.5,194 L154.5,194 C156.43299662440776,194 158,195.56700337559224 158,197.5 L158,314.5 C158,316.4329966244078 156.43299662440776,318 154.5,318 L154.5,318 C152.56700337559224,318 151,316.4329966244078 151,314.5 Z" fill="#78a8ff"/>
<path d="M161,209.5 C161,207.56700337559224 162.56700337559224,206 164.5,206 L164.5,206 C166.43299662440776,206 168,207.56700337559224 168,209.5 L168,302.5 C168,304.4329966244078 166.43299662440776,306 164.5,306 L164.5,306 C162.56700337559224,306 161,304.4329966244078 161,302.5 Z" fill="#7890ff"/>
<path d="M171,203.5 C171,201.56700337559224 172.56700337559224,200 174.5,200 L174.5,200 C176.43299662440776,200 178,201.56700337559224 178,203.5 L178,308.5 C178,310.4329966244078 176.43299662440776,312 174.5,312 L174.5,312 C172.56700337559224,312 171,310.4329966244078 171,308.5 Z" fill="#8090ff"/>
<path d="M181,217.5 C181,215.56700337559224 182.56700337559224,214 184.5,214 L184.5,214 C186.43299662440776,214 188,215.56700337559224 188,217.5 L188,294.5 C188,296.4329966244078 186.43299662440776,298 184.5,298 L184.5,298 C182.56700337559224,298 181,296.4329966244078 181,294.5 Z" fill="#9090ff"/>
<path d="M191,227.5 C191,225.56700337559224 192.56700337559224,224 194.5,224 L194.5,224 C196.43299662440776,224 198,225.56700337559224 198,227.5 L198,284.5 C198,286.4329966244078 196.43299662440776,288 194.5,288 L194.5,288 C192.56700337559224,288 191,286.4329966244078 191,284.5 Z" fill="#9c90f0"/>
<path d="M201,235.5 C201,233.56700337559224 202.56700337559224,232 204.5,232 L204.5,232 C206.43299662440776,232 208,233.56700337559224 208,235.5 L208,276.5 C208,278.4329966244078 206.43299662440776,280 204.5,280 L204.5,280 C202.56700337559224,280 201,278.4329966244078 201,276.5 Z" fill="#a890f0"/>
<path d="M211,241 C211,239.34314575050763 212.34314575050763,238 214,238 L214,238 C215.65685424949237,238 217,239.34314575050763 217,241 L217,271 C217,272.65685424949237 215.65685424949237,274 214,274 L214,274 C212.34314575050763,274 211,272.65685424949237 211,271 Z" fill="#b89cf0"/>
<path d="M220,246 C220,244.34314575050763 221.34314575050763,243 223,243 L223,243 C224.65685424949237,243 226,244.34314575050763 226,246 L226,266 C226,267.65685424949237 224.65685424949237,269 223,269 L223,269 C221.34314575050763,269 220,267.65685424949237 220,266 Z" fill="#c090f0"/>
<path d="M229,250 C229,248.34314575050763 230.34314575050763,247 232,247 L232,247 C233.65685424949237,247 235,248.34314575050763 235,250 L235,262 C235,263.65685424949237 233.65685424949237,265 232,265 L232,265 C230.34314575050763,265 229,263.65685424949237 229,262 Z" fill="#b0a8f5"/>
<path d="M238,252.5 C238,251.11928812542303 239.11928812542303,250 240.5,250 L240.5,250 C241.88071187457697,250 243,251.11928812542303 243,252.5 L243,259.5 C243,260.880711874577 241.88071187457697,262 240.5,262 L240.5,262 C239.11928812542303,262 238,260.880711874577 238,259.5 Z" fill="#b0c0f8"/>
<path d="M246,254.5 C246,253.11928812542303 247.11928812542303,252 248.5,252 L248.5,252 C249.88071187457697,252 251,253.11928812542303 251,254.5 L251,257.5 C251,258.880711874577 249.88071187457697,260 248.5,260 L248.5,260 C247.11928812542303,260 246,258.880711874577 246,257.5 Z" fill="#c8d8ff"/>
<path d="M254,255.5 C254,254.11928812542303 255.11928812542303,253 256.5,253 L256.5,253 C257.880711874577,253 259,254.11928812542303 259,255.5 L259,256.5 C259,257.880711874577 257.880711874577,259 256.5,259 L256.5,259 C255.11928812542303,259 254,257.880711874577 254,256.5 Z" fill="#d0e0ff"/>
<path d="M262,256 C262,254.89543050033842 262.8954305003384,254 264,254 L264,254 C265.1045694996616,254 266,254.89543050033842 266,256 L266,256 C266,257.1045694996616 265.1045694996616,258 264,258 L264,258 C262.8954305003384,258 262,257.1045694996616 262,256 Z" fill="#dcebff"/>
<path d="M269,256 C269,255.17157287525382 269.6715728752538,254.5 270.5,254.5 L271.5,254.5 C272.3284271247462,254.5 273,255.17157287525382 273,256 L273,256 C273,256.8284271247462 272.3284271247462,257.5 271.5,257.5 L270.5,257.5 C269.6715728752538,257.5 269,256.8284271247462 269,256 Z" fill="#e0ecff"/>
<path d="M276,256 C276,255.4477152501692 276.4477152501692,255 277,255 L279,255 C279.5522847498308,255 280,255.4477152501692 280,256 L280,256 C280,256.5522847498308 279.5522847498308,257 279,257 L277,257 C276.4477152501692,257 276,256.5522847498308 276,256 Z" fill="#e8f4ff"/>
<path d="M283,256.25 C283,255.8357864376269 283.3357864376269,255.5 283.75,255.5 L286.25,255.5 C286.6642135623731,255.5 287,255.8357864376269 287,256.25 L287,256.25 C287,256.6642135623731 286.6642135623731,257 286.25,257 L283.75,257 C283.3357864376269,257 283,256.6642135623731 283,256.25 Z" fill="#e8f4ff"/>
<path d="M315,256 L385,256" fill="none" stroke="#e8f4ff" stroke-width="2"/>
<path d="M402,256 C402,258.207660097976 400.207660097976,260 398,260 C395.792339902024,260 394,258.207660097976 394,256 C394,253.792339902024 395.792339902024,252 398,252 C400.207660097976,252 402,253.792339902024 402,256 Z" fill="#e8f4ff"/>
<path d="M406,256 C406,260.415320195952 402.415320195952,264 398,264 C393.584679804048,264 390,260.415320195952 390,256 C390,251.584679804048 393.584679804048,248 398,248 C402.415320195952,248 406,251.584679804048 406,256 Z" fill="none" stroke="#e8f4ff" stroke-width="1.5"/>
</svg>
</g>
</svg>
